<mxfile host="Chrome" modified="2023-05-08T13:38:06.451Z" agent="Mozilla/5.0 (Windows NT 10.0; Win64; x64) AppleWebKit/537.36 (KHTML, like Gecko) Chrome/112.0.0.0 Safari/537.36" etag="As-OOtWJL1Apn4SaoT_6" version="21.2.7" type="device">
  <diagram id="FLHFVK-vs5RzJ5IV7f_E" name="Page-1">
    <mxGraphModel dx="1578" dy="1723" grid="1" gridSize="10" guides="1" tooltips="1" connect="1" arrows="1" fold="1" page="1" pageScale="1" pageWidth="850" pageHeight="1100" math="0" shadow="0">
      <root>
        <mxCell id="0" />
        <mxCell id="1" parent="0" />
        <mxCell id="Cyva59-cHh2bdcUHBe5w-1" value="" style="shape=table;startSize=0;container=1;collapsible=0;childLayout=tableLayout;" parent="1" vertex="1">
          <mxGeometry x="-350" y="-400" width="250" height="360" as="geometry" />
        </mxCell>
        <mxCell id="Cyva59-cHh2bdcUHBe5w-2" value="" style="shape=tableRow;horizontal=0;startSize=0;swimlaneHead=0;swimlaneBody=0;strokeColor=inherit;top=0;left=0;bottom=0;right=0;collapsible=0;dropTarget=0;fillColor=none;points=[[0,0.5],[1,0.5]];portConstraint=eastwest;" parent="Cyva59-cHh2bdcUHBe5w-1" vertex="1">
          <mxGeometry width="250" height="40" as="geometry" />
        </mxCell>
        <mxCell id="Cyva59-cHh2bdcUHBe5w-3" value="&lt;b&gt;&lt;font style=&quot;font-size: 14px;&quot;&gt;Tasks&lt;/font&gt;&lt;/b&gt;" style="shape=partialRectangle;html=1;whiteSpace=wrap;connectable=0;strokeColor=inherit;overflow=hidden;fillColor=none;top=0;left=0;bottom=0;right=0;pointerEvents=1;" parent="Cyva59-cHh2bdcUHBe5w-2" vertex="1">
          <mxGeometry width="73" height="40" as="geometry">
            <mxRectangle width="73" height="40" as="alternateBounds" />
          </mxGeometry>
        </mxCell>
        <mxCell id="Cyva59-cHh2bdcUHBe5w-4" value="&lt;b&gt;&lt;font style=&quot;font-size: 14px;&quot;&gt;Duration&lt;/font&gt;&lt;/b&gt;" style="shape=partialRectangle;html=1;whiteSpace=wrap;connectable=0;strokeColor=inherit;overflow=hidden;fillColor=none;top=0;left=0;bottom=0;right=0;pointerEvents=1;" parent="Cyva59-cHh2bdcUHBe5w-2" vertex="1">
          <mxGeometry x="73" width="74" height="40" as="geometry">
            <mxRectangle width="74" height="40" as="alternateBounds" />
          </mxGeometry>
        </mxCell>
        <mxCell id="Cyva59-cHh2bdcUHBe5w-5" value="&lt;b&gt;&lt;font style=&quot;font-size: 16px;&quot;&gt;Predecedors&lt;/font&gt;&lt;/b&gt;" style="shape=partialRectangle;html=1;whiteSpace=wrap;connectable=0;strokeColor=inherit;overflow=hidden;fillColor=none;top=0;left=0;bottom=0;right=0;pointerEvents=1;" parent="Cyva59-cHh2bdcUHBe5w-2" vertex="1">
          <mxGeometry x="147" width="103" height="40" as="geometry">
            <mxRectangle width="103" height="40" as="alternateBounds" />
          </mxGeometry>
        </mxCell>
        <mxCell id="Cyva59-cHh2bdcUHBe5w-6" value="" style="shape=tableRow;horizontal=0;startSize=0;swimlaneHead=0;swimlaneBody=0;strokeColor=inherit;top=0;left=0;bottom=0;right=0;collapsible=0;dropTarget=0;fillColor=none;points=[[0,0.5],[1,0.5]];portConstraint=eastwest;" parent="Cyva59-cHh2bdcUHBe5w-1" vertex="1">
          <mxGeometry y="40" width="250" height="40" as="geometry" />
        </mxCell>
        <mxCell id="Cyva59-cHh2bdcUHBe5w-7" value="A" style="shape=partialRectangle;html=1;whiteSpace=wrap;connectable=0;strokeColor=inherit;overflow=hidden;fillColor=none;top=0;left=0;bottom=0;right=0;pointerEvents=1;" parent="Cyva59-cHh2bdcUHBe5w-6" vertex="1">
          <mxGeometry width="73" height="40" as="geometry">
            <mxRectangle width="73" height="40" as="alternateBounds" />
          </mxGeometry>
        </mxCell>
        <mxCell id="Cyva59-cHh2bdcUHBe5w-8" value="3" style="shape=partialRectangle;html=1;whiteSpace=wrap;connectable=0;strokeColor=inherit;overflow=hidden;fillColor=none;top=0;left=0;bottom=0;right=0;pointerEvents=1;" parent="Cyva59-cHh2bdcUHBe5w-6" vertex="1">
          <mxGeometry x="73" width="74" height="40" as="geometry">
            <mxRectangle width="74" height="40" as="alternateBounds" />
          </mxGeometry>
        </mxCell>
        <mxCell id="Cyva59-cHh2bdcUHBe5w-9" value="-" style="shape=partialRectangle;html=1;whiteSpace=wrap;connectable=0;strokeColor=inherit;overflow=hidden;fillColor=none;top=0;left=0;bottom=0;right=0;pointerEvents=1;" parent="Cyva59-cHh2bdcUHBe5w-6" vertex="1">
          <mxGeometry x="147" width="103" height="40" as="geometry">
            <mxRectangle width="103" height="40" as="alternateBounds" />
          </mxGeometry>
        </mxCell>
        <mxCell id="Cyva59-cHh2bdcUHBe5w-10" value="" style="shape=tableRow;horizontal=0;startSize=0;swimlaneHead=0;swimlaneBody=0;strokeColor=inherit;top=0;left=0;bottom=0;right=0;collapsible=0;dropTarget=0;fillColor=none;points=[[0,0.5],[1,0.5]];portConstraint=eastwest;" parent="Cyva59-cHh2bdcUHBe5w-1" vertex="1">
          <mxGeometry y="80" width="250" height="40" as="geometry" />
        </mxCell>
        <mxCell id="Cyva59-cHh2bdcUHBe5w-11" value="B" style="shape=partialRectangle;html=1;whiteSpace=wrap;connectable=0;strokeColor=inherit;overflow=hidden;fillColor=none;top=0;left=0;bottom=0;right=0;pointerEvents=1;" parent="Cyva59-cHh2bdcUHBe5w-10" vertex="1">
          <mxGeometry width="73" height="40" as="geometry">
            <mxRectangle width="73" height="40" as="alternateBounds" />
          </mxGeometry>
        </mxCell>
        <mxCell id="Cyva59-cHh2bdcUHBe5w-12" value="4" style="shape=partialRectangle;html=1;whiteSpace=wrap;connectable=0;strokeColor=inherit;overflow=hidden;fillColor=none;top=0;left=0;bottom=0;right=0;pointerEvents=1;" parent="Cyva59-cHh2bdcUHBe5w-10" vertex="1">
          <mxGeometry x="73" width="74" height="40" as="geometry">
            <mxRectangle width="74" height="40" as="alternateBounds" />
          </mxGeometry>
        </mxCell>
        <mxCell id="Cyva59-cHh2bdcUHBe5w-13" value="A" style="shape=partialRectangle;html=1;whiteSpace=wrap;connectable=0;strokeColor=inherit;overflow=hidden;fillColor=none;top=0;left=0;bottom=0;right=0;pointerEvents=1;" parent="Cyva59-cHh2bdcUHBe5w-10" vertex="1">
          <mxGeometry x="147" width="103" height="40" as="geometry">
            <mxRectangle width="103" height="40" as="alternateBounds" />
          </mxGeometry>
        </mxCell>
        <mxCell id="Cyva59-cHh2bdcUHBe5w-14" value="" style="shape=tableRow;horizontal=0;startSize=0;swimlaneHead=0;swimlaneBody=0;strokeColor=inherit;top=0;left=0;bottom=0;right=0;collapsible=0;dropTarget=0;fillColor=none;points=[[0,0.5],[1,0.5]];portConstraint=eastwest;" parent="Cyva59-cHh2bdcUHBe5w-1" vertex="1">
          <mxGeometry y="120" width="250" height="40" as="geometry" />
        </mxCell>
        <mxCell id="Cyva59-cHh2bdcUHBe5w-15" value="C" style="shape=partialRectangle;html=1;whiteSpace=wrap;connectable=0;strokeColor=inherit;overflow=hidden;fillColor=none;top=0;left=0;bottom=0;right=0;pointerEvents=1;" parent="Cyva59-cHh2bdcUHBe5w-14" vertex="1">
          <mxGeometry width="73" height="40" as="geometry">
            <mxRectangle width="73" height="40" as="alternateBounds" />
          </mxGeometry>
        </mxCell>
        <mxCell id="Cyva59-cHh2bdcUHBe5w-16" value="2" style="shape=partialRectangle;html=1;whiteSpace=wrap;connectable=0;strokeColor=inherit;overflow=hidden;fillColor=none;top=0;left=0;bottom=0;right=0;pointerEvents=1;" parent="Cyva59-cHh2bdcUHBe5w-14" vertex="1">
          <mxGeometry x="73" width="74" height="40" as="geometry">
            <mxRectangle width="74" height="40" as="alternateBounds" />
          </mxGeometry>
        </mxCell>
        <mxCell id="Cyva59-cHh2bdcUHBe5w-17" value="A" style="shape=partialRectangle;html=1;whiteSpace=wrap;connectable=0;strokeColor=inherit;overflow=hidden;fillColor=none;top=0;left=0;bottom=0;right=0;pointerEvents=1;" parent="Cyva59-cHh2bdcUHBe5w-14" vertex="1">
          <mxGeometry x="147" width="103" height="40" as="geometry">
            <mxRectangle width="103" height="40" as="alternateBounds" />
          </mxGeometry>
        </mxCell>
        <mxCell id="Cyva59-cHh2bdcUHBe5w-18" value="" style="shape=tableRow;horizontal=0;startSize=0;swimlaneHead=0;swimlaneBody=0;strokeColor=inherit;top=0;left=0;bottom=0;right=0;collapsible=0;dropTarget=0;fillColor=none;points=[[0,0.5],[1,0.5]];portConstraint=eastwest;" parent="Cyva59-cHh2bdcUHBe5w-1" vertex="1">
          <mxGeometry y="160" width="250" height="40" as="geometry" />
        </mxCell>
        <mxCell id="Cyva59-cHh2bdcUHBe5w-19" value="D" style="shape=partialRectangle;html=1;whiteSpace=wrap;connectable=0;strokeColor=inherit;overflow=hidden;fillColor=none;top=0;left=0;bottom=0;right=0;pointerEvents=1;" parent="Cyva59-cHh2bdcUHBe5w-18" vertex="1">
          <mxGeometry width="73" height="40" as="geometry">
            <mxRectangle width="73" height="40" as="alternateBounds" />
          </mxGeometry>
        </mxCell>
        <mxCell id="Cyva59-cHh2bdcUHBe5w-20" value="5" style="shape=partialRectangle;html=1;whiteSpace=wrap;connectable=0;strokeColor=inherit;overflow=hidden;fillColor=none;top=0;left=0;bottom=0;right=0;pointerEvents=1;" parent="Cyva59-cHh2bdcUHBe5w-18" vertex="1">
          <mxGeometry x="73" width="74" height="40" as="geometry">
            <mxRectangle width="74" height="40" as="alternateBounds" />
          </mxGeometry>
        </mxCell>
        <mxCell id="Cyva59-cHh2bdcUHBe5w-21" value="B" style="shape=partialRectangle;html=1;whiteSpace=wrap;connectable=0;strokeColor=inherit;overflow=hidden;fillColor=none;top=0;left=0;bottom=0;right=0;pointerEvents=1;" parent="Cyva59-cHh2bdcUHBe5w-18" vertex="1">
          <mxGeometry x="147" width="103" height="40" as="geometry">
            <mxRectangle width="103" height="40" as="alternateBounds" />
          </mxGeometry>
        </mxCell>
        <mxCell id="Cyva59-cHh2bdcUHBe5w-22" value="" style="shape=tableRow;horizontal=0;startSize=0;swimlaneHead=0;swimlaneBody=0;strokeColor=inherit;top=0;left=0;bottom=0;right=0;collapsible=0;dropTarget=0;fillColor=none;points=[[0,0.5],[1,0.5]];portConstraint=eastwest;" parent="Cyva59-cHh2bdcUHBe5w-1" vertex="1">
          <mxGeometry y="200" width="250" height="40" as="geometry" />
        </mxCell>
        <mxCell id="Cyva59-cHh2bdcUHBe5w-23" value="E" style="shape=partialRectangle;html=1;whiteSpace=wrap;connectable=0;strokeColor=inherit;overflow=hidden;fillColor=none;top=0;left=0;bottom=0;right=0;pointerEvents=1;" parent="Cyva59-cHh2bdcUHBe5w-22" vertex="1">
          <mxGeometry width="73" height="40" as="geometry">
            <mxRectangle width="73" height="40" as="alternateBounds" />
          </mxGeometry>
        </mxCell>
        <mxCell id="Cyva59-cHh2bdcUHBe5w-24" value="1" style="shape=partialRectangle;html=1;whiteSpace=wrap;connectable=0;strokeColor=inherit;overflow=hidden;fillColor=none;top=0;left=0;bottom=0;right=0;pointerEvents=1;" parent="Cyva59-cHh2bdcUHBe5w-22" vertex="1">
          <mxGeometry x="73" width="74" height="40" as="geometry">
            <mxRectangle width="74" height="40" as="alternateBounds" />
          </mxGeometry>
        </mxCell>
        <mxCell id="Cyva59-cHh2bdcUHBe5w-25" value="C" style="shape=partialRectangle;html=1;whiteSpace=wrap;connectable=0;strokeColor=inherit;overflow=hidden;fillColor=none;top=0;left=0;bottom=0;right=0;pointerEvents=1;" parent="Cyva59-cHh2bdcUHBe5w-22" vertex="1">
          <mxGeometry x="147" width="103" height="40" as="geometry">
            <mxRectangle width="103" height="40" as="alternateBounds" />
          </mxGeometry>
        </mxCell>
        <mxCell id="Cyva59-cHh2bdcUHBe5w-26" value="" style="shape=tableRow;horizontal=0;startSize=0;swimlaneHead=0;swimlaneBody=0;strokeColor=inherit;top=0;left=0;bottom=0;right=0;collapsible=0;dropTarget=0;fillColor=none;points=[[0,0.5],[1,0.5]];portConstraint=eastwest;" parent="Cyva59-cHh2bdcUHBe5w-1" vertex="1">
          <mxGeometry y="240" width="250" height="40" as="geometry" />
        </mxCell>
        <mxCell id="Cyva59-cHh2bdcUHBe5w-27" value="F" style="shape=partialRectangle;html=1;whiteSpace=wrap;connectable=0;strokeColor=inherit;overflow=hidden;fillColor=none;top=0;left=0;bottom=0;right=0;pointerEvents=1;" parent="Cyva59-cHh2bdcUHBe5w-26" vertex="1">
          <mxGeometry width="73" height="40" as="geometry">
            <mxRectangle width="73" height="40" as="alternateBounds" />
          </mxGeometry>
        </mxCell>
        <mxCell id="Cyva59-cHh2bdcUHBe5w-28" value="2" style="shape=partialRectangle;html=1;whiteSpace=wrap;connectable=0;strokeColor=inherit;overflow=hidden;fillColor=none;top=0;left=0;bottom=0;right=0;pointerEvents=1;" parent="Cyva59-cHh2bdcUHBe5w-26" vertex="1">
          <mxGeometry x="73" width="74" height="40" as="geometry">
            <mxRectangle width="74" height="40" as="alternateBounds" />
          </mxGeometry>
        </mxCell>
        <mxCell id="Cyva59-cHh2bdcUHBe5w-29" value="C" style="shape=partialRectangle;html=1;whiteSpace=wrap;connectable=0;strokeColor=inherit;overflow=hidden;fillColor=none;top=0;left=0;bottom=0;right=0;pointerEvents=1;" parent="Cyva59-cHh2bdcUHBe5w-26" vertex="1">
          <mxGeometry x="147" width="103" height="40" as="geometry">
            <mxRectangle width="103" height="40" as="alternateBounds" />
          </mxGeometry>
        </mxCell>
        <mxCell id="Cyva59-cHh2bdcUHBe5w-30" value="" style="shape=tableRow;horizontal=0;startSize=0;swimlaneHead=0;swimlaneBody=0;strokeColor=inherit;top=0;left=0;bottom=0;right=0;collapsible=0;dropTarget=0;fillColor=none;points=[[0,0.5],[1,0.5]];portConstraint=eastwest;" parent="Cyva59-cHh2bdcUHBe5w-1" vertex="1">
          <mxGeometry y="280" width="250" height="40" as="geometry" />
        </mxCell>
        <mxCell id="Cyva59-cHh2bdcUHBe5w-31" value="G" style="shape=partialRectangle;html=1;whiteSpace=wrap;connectable=0;strokeColor=inherit;overflow=hidden;fillColor=none;top=0;left=0;bottom=0;right=0;pointerEvents=1;" parent="Cyva59-cHh2bdcUHBe5w-30" vertex="1">
          <mxGeometry width="73" height="40" as="geometry">
            <mxRectangle width="73" height="40" as="alternateBounds" />
          </mxGeometry>
        </mxCell>
        <mxCell id="Cyva59-cHh2bdcUHBe5w-32" value="4" style="shape=partialRectangle;html=1;whiteSpace=wrap;connectable=0;strokeColor=inherit;overflow=hidden;fillColor=none;top=0;left=0;bottom=0;right=0;pointerEvents=1;" parent="Cyva59-cHh2bdcUHBe5w-30" vertex="1">
          <mxGeometry x="73" width="74" height="40" as="geometry">
            <mxRectangle width="74" height="40" as="alternateBounds" />
          </mxGeometry>
        </mxCell>
        <mxCell id="Cyva59-cHh2bdcUHBe5w-33" value="D, E" style="shape=partialRectangle;html=1;whiteSpace=wrap;connectable=0;strokeColor=inherit;overflow=hidden;fillColor=none;top=0;left=0;bottom=0;right=0;pointerEvents=1;" parent="Cyva59-cHh2bdcUHBe5w-30" vertex="1">
          <mxGeometry x="147" width="103" height="40" as="geometry">
            <mxRectangle width="103" height="40" as="alternateBounds" />
          </mxGeometry>
        </mxCell>
        <mxCell id="Cyva59-cHh2bdcUHBe5w-34" value="" style="shape=tableRow;horizontal=0;startSize=0;swimlaneHead=0;swimlaneBody=0;strokeColor=inherit;top=0;left=0;bottom=0;right=0;collapsible=0;dropTarget=0;fillColor=none;points=[[0,0.5],[1,0.5]];portConstraint=eastwest;" parent="Cyva59-cHh2bdcUHBe5w-1" vertex="1">
          <mxGeometry y="320" width="250" height="40" as="geometry" />
        </mxCell>
        <mxCell id="Cyva59-cHh2bdcUHBe5w-35" value="H" style="shape=partialRectangle;html=1;whiteSpace=wrap;connectable=0;strokeColor=inherit;overflow=hidden;fillColor=none;top=0;left=0;bottom=0;right=0;pointerEvents=1;" parent="Cyva59-cHh2bdcUHBe5w-34" vertex="1">
          <mxGeometry width="73" height="40" as="geometry">
            <mxRectangle width="73" height="40" as="alternateBounds" />
          </mxGeometry>
        </mxCell>
        <mxCell id="Cyva59-cHh2bdcUHBe5w-36" value="3" style="shape=partialRectangle;html=1;whiteSpace=wrap;connectable=0;strokeColor=inherit;overflow=hidden;fillColor=none;top=0;left=0;bottom=0;right=0;pointerEvents=1;" parent="Cyva59-cHh2bdcUHBe5w-34" vertex="1">
          <mxGeometry x="73" width="74" height="40" as="geometry">
            <mxRectangle width="74" height="40" as="alternateBounds" />
          </mxGeometry>
        </mxCell>
        <mxCell id="Cyva59-cHh2bdcUHBe5w-37" value="F, G" style="shape=partialRectangle;html=1;whiteSpace=wrap;connectable=0;strokeColor=inherit;overflow=hidden;fillColor=none;top=0;left=0;bottom=0;right=0;pointerEvents=1;" parent="Cyva59-cHh2bdcUHBe5w-34" vertex="1">
          <mxGeometry x="147" width="103" height="40" as="geometry">
            <mxRectangle width="103" height="40" as="alternateBounds" />
          </mxGeometry>
        </mxCell>
        <mxCell id="QbH99j2JAD5R1Iz9AGVL-42" value="&lt;b&gt;&lt;font style=&quot;font-size: 16px;&quot;&gt;A&lt;/font&gt;&lt;/b&gt;" style="rounded=0;whiteSpace=wrap;html=1;fillColor=#FFE6CC;" vertex="1" parent="1">
          <mxGeometry x="-520" y="220" width="100" height="20" as="geometry" />
        </mxCell>
        <mxCell id="QbH99j2JAD5R1Iz9AGVL-44" value="" style="rounded=0;whiteSpace=wrap;html=1;" vertex="1" parent="1">
          <mxGeometry x="-520" y="190" width="100" height="30" as="geometry" />
        </mxCell>
        <mxCell id="QbH99j2JAD5R1Iz9AGVL-47" value="" style="rounded=0;whiteSpace=wrap;html=1;" vertex="1" parent="1">
          <mxGeometry x="-520" y="240" width="100" height="30" as="geometry" />
        </mxCell>
        <mxCell id="QbH99j2JAD5R1Iz9AGVL-48" value="&lt;b&gt;&lt;font style=&quot;font-size: 16px;&quot;&gt;0&lt;/font&gt;&lt;/b&gt;" style="whiteSpace=wrap;html=1;aspect=fixed;" vertex="1" parent="1">
          <mxGeometry x="-520" y="190" width="30" height="30" as="geometry" />
        </mxCell>
        <mxCell id="QbH99j2JAD5R1Iz9AGVL-49" value="&lt;font size=&quot;1&quot;&gt;&lt;b style=&quot;font-size: 16px;&quot;&gt;3&lt;/b&gt;&lt;/font&gt;" style="whiteSpace=wrap;html=1;aspect=fixed;" vertex="1" parent="1">
          <mxGeometry x="-450" y="190" width="30" height="30" as="geometry" />
        </mxCell>
        <mxCell id="QbH99j2JAD5R1Iz9AGVL-50" value="&lt;font size=&quot;1&quot;&gt;&lt;b style=&quot;font-size: 16px;&quot;&gt;3&lt;/b&gt;&lt;/font&gt;" style="whiteSpace=wrap;html=1;aspect=fixed;fillColor=#99FFCC;" vertex="1" parent="1">
          <mxGeometry x="-485" y="190" width="30" height="30" as="geometry" />
        </mxCell>
        <mxCell id="QbH99j2JAD5R1Iz9AGVL-51" value="&lt;b&gt;&lt;font style=&quot;font-size: 16px;&quot;&gt;0&lt;/font&gt;&lt;/b&gt;" style="whiteSpace=wrap;html=1;aspect=fixed;" vertex="1" parent="1">
          <mxGeometry x="-520" y="240" width="30" height="30" as="geometry" />
        </mxCell>
        <mxCell id="QbH99j2JAD5R1Iz9AGVL-52" value="&lt;font size=&quot;1&quot;&gt;&lt;b style=&quot;font-size: 16px;&quot;&gt;3&lt;/b&gt;&lt;/font&gt;" style="whiteSpace=wrap;html=1;aspect=fixed;" vertex="1" parent="1">
          <mxGeometry x="-450" y="240" width="30" height="30" as="geometry" />
        </mxCell>
        <mxCell id="QbH99j2JAD5R1Iz9AGVL-53" value="&lt;font size=&quot;1&quot;&gt;&lt;b style=&quot;font-size: 16px;&quot;&gt;0&lt;/b&gt;&lt;/font&gt;" style="whiteSpace=wrap;html=1;aspect=fixed;fillColor=#99FF99;" vertex="1" parent="1">
          <mxGeometry x="-485" y="240" width="30" height="30" as="geometry" />
        </mxCell>
        <mxCell id="QbH99j2JAD5R1Iz9AGVL-54" value="" style="endArrow=classic;html=1;rounded=0;strokeWidth=2;exitX=1;exitY=0;exitDx=0;exitDy=0;entryX=0;entryY=0.5;entryDx=0;entryDy=0;" edge="1" parent="1" source="QbH99j2JAD5R1Iz9AGVL-84" target="QbH99j2JAD5R1Iz9AGVL-94">
          <mxGeometry width="50" height="50" relative="1" as="geometry">
            <mxPoint x="-360" y="584" as="sourcePoint" />
            <mxPoint x="-270" y="584" as="targetPoint" />
          </mxGeometry>
        </mxCell>
        <mxCell id="QbH99j2JAD5R1Iz9AGVL-55" value="&lt;b&gt;&lt;font style=&quot;font-size: 16px;&quot;&gt;H&lt;/font&gt;&lt;/b&gt;" style="rounded=0;whiteSpace=wrap;html=1;fillColor=#D5E8D4;" vertex="1" parent="1">
          <mxGeometry x="60" y="270" width="100" height="20" as="geometry" />
        </mxCell>
        <mxCell id="QbH99j2JAD5R1Iz9AGVL-56" value="" style="rounded=0;whiteSpace=wrap;html=1;" vertex="1" parent="1">
          <mxGeometry x="60" y="240" width="100" height="30" as="geometry" />
        </mxCell>
        <mxCell id="QbH99j2JAD5R1Iz9AGVL-57" value="" style="rounded=0;whiteSpace=wrap;html=1;" vertex="1" parent="1">
          <mxGeometry x="60" y="290" width="100" height="30" as="geometry" />
        </mxCell>
        <mxCell id="QbH99j2JAD5R1Iz9AGVL-58" value="&lt;b&gt;&lt;font style=&quot;font-size: 16px;&quot;&gt;16&lt;/font&gt;&lt;/b&gt;" style="whiteSpace=wrap;html=1;aspect=fixed;" vertex="1" parent="1">
          <mxGeometry x="60" y="240" width="30" height="30" as="geometry" />
        </mxCell>
        <mxCell id="QbH99j2JAD5R1Iz9AGVL-59" value="&lt;font size=&quot;1&quot;&gt;&lt;b style=&quot;font-size: 16px;&quot;&gt;19&lt;/b&gt;&lt;/font&gt;" style="whiteSpace=wrap;html=1;aspect=fixed;" vertex="1" parent="1">
          <mxGeometry x="130" y="240" width="30" height="30" as="geometry" />
        </mxCell>
        <mxCell id="QbH99j2JAD5R1Iz9AGVL-60" value="&lt;font size=&quot;1&quot;&gt;&lt;b style=&quot;font-size: 16px;&quot;&gt;3&lt;/b&gt;&lt;/font&gt;" style="whiteSpace=wrap;html=1;aspect=fixed;fillColor=#99FFCC;" vertex="1" parent="1">
          <mxGeometry x="95" y="240" width="30" height="30" as="geometry" />
        </mxCell>
        <mxCell id="QbH99j2JAD5R1Iz9AGVL-61" value="&lt;b&gt;&lt;font style=&quot;font-size: 16px;&quot;&gt;16&lt;/font&gt;&lt;/b&gt;" style="whiteSpace=wrap;html=1;aspect=fixed;" vertex="1" parent="1">
          <mxGeometry x="60" y="290" width="30" height="30" as="geometry" />
        </mxCell>
        <mxCell id="QbH99j2JAD5R1Iz9AGVL-62" value="&lt;font size=&quot;1&quot;&gt;&lt;b style=&quot;font-size: 16px;&quot;&gt;19&lt;/b&gt;&lt;/font&gt;" style="whiteSpace=wrap;html=1;aspect=fixed;" vertex="1" parent="1">
          <mxGeometry x="130" y="290" width="30" height="30" as="geometry" />
        </mxCell>
        <mxCell id="QbH99j2JAD5R1Iz9AGVL-63" value="&lt;font size=&quot;1&quot;&gt;&lt;b style=&quot;font-size: 16px;&quot;&gt;0&lt;/b&gt;&lt;/font&gt;" style="whiteSpace=wrap;html=1;aspect=fixed;fillColor=#99FF99;" vertex="1" parent="1">
          <mxGeometry x="95" y="290" width="30" height="30" as="geometry" />
        </mxCell>
        <mxCell id="QbH99j2JAD5R1Iz9AGVL-64" value="&lt;b&gt;&lt;font style=&quot;font-size: 16px;&quot;&gt;B&lt;/font&gt;&lt;/b&gt;" style="rounded=0;whiteSpace=wrap;html=1;fillColor=#FFCCCC;" vertex="1" parent="1">
          <mxGeometry x="-400" y="80" width="100" height="20" as="geometry" />
        </mxCell>
        <mxCell id="QbH99j2JAD5R1Iz9AGVL-65" value="" style="rounded=0;whiteSpace=wrap;html=1;" vertex="1" parent="1">
          <mxGeometry x="-400" y="50" width="100" height="30" as="geometry" />
        </mxCell>
        <mxCell id="QbH99j2JAD5R1Iz9AGVL-66" value="" style="rounded=0;whiteSpace=wrap;html=1;" vertex="1" parent="1">
          <mxGeometry x="-400" y="100" width="100" height="30" as="geometry" />
        </mxCell>
        <mxCell id="QbH99j2JAD5R1Iz9AGVL-67" value="&lt;b&gt;&lt;font style=&quot;font-size: 16px;&quot;&gt;3&lt;/font&gt;&lt;/b&gt;" style="whiteSpace=wrap;html=1;aspect=fixed;" vertex="1" parent="1">
          <mxGeometry x="-400" y="50" width="30" height="30" as="geometry" />
        </mxCell>
        <mxCell id="QbH99j2JAD5R1Iz9AGVL-68" value="&lt;font size=&quot;1&quot;&gt;&lt;b style=&quot;font-size: 16px;&quot;&gt;7&lt;/b&gt;&lt;/font&gt;" style="whiteSpace=wrap;html=1;aspect=fixed;" vertex="1" parent="1">
          <mxGeometry x="-330" y="50" width="30" height="30" as="geometry" />
        </mxCell>
        <mxCell id="QbH99j2JAD5R1Iz9AGVL-69" value="&lt;font size=&quot;1&quot;&gt;&lt;b style=&quot;font-size: 16px;&quot;&gt;4&lt;/b&gt;&lt;/font&gt;" style="whiteSpace=wrap;html=1;aspect=fixed;fillColor=#99FFCC;" vertex="1" parent="1">
          <mxGeometry x="-365" y="50" width="30" height="30" as="geometry" />
        </mxCell>
        <mxCell id="QbH99j2JAD5R1Iz9AGVL-70" value="&lt;b&gt;&lt;font style=&quot;font-size: 16px;&quot;&gt;3&lt;/font&gt;&lt;/b&gt;" style="whiteSpace=wrap;html=1;aspect=fixed;" vertex="1" parent="1">
          <mxGeometry x="-400" y="100" width="30" height="30" as="geometry" />
        </mxCell>
        <mxCell id="QbH99j2JAD5R1Iz9AGVL-71" value="&lt;font size=&quot;1&quot;&gt;&lt;b style=&quot;font-size: 16px;&quot;&gt;7&lt;/b&gt;&lt;/font&gt;" style="whiteSpace=wrap;html=1;aspect=fixed;" vertex="1" parent="1">
          <mxGeometry x="-330" y="100" width="30" height="30" as="geometry" />
        </mxCell>
        <mxCell id="QbH99j2JAD5R1Iz9AGVL-72" value="&lt;font size=&quot;1&quot;&gt;&lt;b style=&quot;font-size: 16px;&quot;&gt;0&lt;/b&gt;&lt;/font&gt;" style="whiteSpace=wrap;html=1;aspect=fixed;fillColor=#99FF99;" vertex="1" parent="1">
          <mxGeometry x="-365" y="100" width="30" height="30" as="geometry" />
        </mxCell>
        <mxCell id="QbH99j2JAD5R1Iz9AGVL-73" value="" style="endArrow=classic;html=1;rounded=0;strokeWidth=2;exitX=0;exitY=0;exitDx=0;exitDy=0;entryX=0;entryY=0;entryDx=0;entryDy=0;" edge="1" parent="1" source="QbH99j2JAD5R1Iz9AGVL-49" target="QbH99j2JAD5R1Iz9AGVL-70">
          <mxGeometry width="50" height="50" relative="1" as="geometry">
            <mxPoint x="-350" y="594" as="sourcePoint" />
            <mxPoint x="-260" y="594" as="targetPoint" />
          </mxGeometry>
        </mxCell>
        <mxCell id="QbH99j2JAD5R1Iz9AGVL-74" value="&lt;b&gt;&lt;font style=&quot;font-size: 16px;&quot;&gt;D&lt;/font&gt;&lt;/b&gt;" style="rounded=0;whiteSpace=wrap;html=1;fillColor=#FFFF99;" vertex="1" parent="1">
          <mxGeometry x="-220" y="70" width="100" height="20" as="geometry" />
        </mxCell>
        <mxCell id="QbH99j2JAD5R1Iz9AGVL-75" value="" style="rounded=0;whiteSpace=wrap;html=1;" vertex="1" parent="1">
          <mxGeometry x="-220" y="40" width="100" height="30" as="geometry" />
        </mxCell>
        <mxCell id="QbH99j2JAD5R1Iz9AGVL-76" value="" style="rounded=0;whiteSpace=wrap;html=1;" vertex="1" parent="1">
          <mxGeometry x="-220" y="90" width="100" height="30" as="geometry" />
        </mxCell>
        <mxCell id="QbH99j2JAD5R1Iz9AGVL-77" value="&lt;b&gt;&lt;font style=&quot;font-size: 16px;&quot;&gt;7&lt;/font&gt;&lt;/b&gt;" style="whiteSpace=wrap;html=1;aspect=fixed;" vertex="1" parent="1">
          <mxGeometry x="-220" y="40" width="30" height="30" as="geometry" />
        </mxCell>
        <mxCell id="QbH99j2JAD5R1Iz9AGVL-78" value="&lt;font size=&quot;1&quot;&gt;&lt;b style=&quot;font-size: 16px;&quot;&gt;12&lt;/b&gt;&lt;/font&gt;" style="whiteSpace=wrap;html=1;aspect=fixed;" vertex="1" parent="1">
          <mxGeometry x="-150" y="40" width="30" height="30" as="geometry" />
        </mxCell>
        <mxCell id="QbH99j2JAD5R1Iz9AGVL-79" value="&lt;font size=&quot;1&quot;&gt;&lt;b style=&quot;font-size: 16px;&quot;&gt;5&lt;/b&gt;&lt;/font&gt;" style="whiteSpace=wrap;html=1;aspect=fixed;fillColor=#99FFCC;" vertex="1" parent="1">
          <mxGeometry x="-185" y="40" width="30" height="30" as="geometry" />
        </mxCell>
        <mxCell id="QbH99j2JAD5R1Iz9AGVL-80" value="&lt;b&gt;&lt;font style=&quot;font-size: 16px;&quot;&gt;7&lt;/font&gt;&lt;/b&gt;" style="whiteSpace=wrap;html=1;aspect=fixed;" vertex="1" parent="1">
          <mxGeometry x="-220" y="90" width="30" height="30" as="geometry" />
        </mxCell>
        <mxCell id="QbH99j2JAD5R1Iz9AGVL-81" value="&lt;font size=&quot;1&quot;&gt;&lt;b style=&quot;font-size: 16px;&quot;&gt;12&lt;/b&gt;&lt;/font&gt;" style="whiteSpace=wrap;html=1;aspect=fixed;" vertex="1" parent="1">
          <mxGeometry x="-150" y="90" width="30" height="30" as="geometry" />
        </mxCell>
        <mxCell id="QbH99j2JAD5R1Iz9AGVL-82" value="&lt;font size=&quot;1&quot;&gt;&lt;b style=&quot;font-size: 16px;&quot;&gt;0&lt;/b&gt;&lt;/font&gt;" style="whiteSpace=wrap;html=1;aspect=fixed;fillColor=#99FF99;" vertex="1" parent="1">
          <mxGeometry x="-185" y="90" width="30" height="30" as="geometry" />
        </mxCell>
        <mxCell id="QbH99j2JAD5R1Iz9AGVL-83" value="" style="endArrow=classic;html=1;rounded=0;strokeWidth=2;exitX=1;exitY=0.25;exitDx=0;exitDy=0;entryX=0;entryY=0.5;entryDx=0;entryDy=0;" edge="1" parent="1" source="QbH99j2JAD5R1Iz9AGVL-64" target="QbH99j2JAD5R1Iz9AGVL-74">
          <mxGeometry width="50" height="50" relative="1" as="geometry">
            <mxPoint x="-350" y="594" as="sourcePoint" />
            <mxPoint x="-260" y="594" as="targetPoint" />
          </mxGeometry>
        </mxCell>
        <mxCell id="QbH99j2JAD5R1Iz9AGVL-84" value="&lt;b&gt;&lt;font color=&quot;#ffffff&quot; style=&quot;font-size: 16px;&quot;&gt;C&lt;/font&gt;&lt;/b&gt;" style="rounded=0;whiteSpace=wrap;html=1;fillColor=#6666FF;" vertex="1" parent="1">
          <mxGeometry x="-360" y="270" width="100" height="20" as="geometry" />
        </mxCell>
        <mxCell id="QbH99j2JAD5R1Iz9AGVL-85" value="" style="rounded=0;whiteSpace=wrap;html=1;" vertex="1" parent="1">
          <mxGeometry x="-360" y="240" width="100" height="30" as="geometry" />
        </mxCell>
        <mxCell id="QbH99j2JAD5R1Iz9AGVL-86" value="" style="rounded=0;whiteSpace=wrap;html=1;" vertex="1" parent="1">
          <mxGeometry x="-360" y="290" width="100" height="30" as="geometry" />
        </mxCell>
        <mxCell id="QbH99j2JAD5R1Iz9AGVL-87" value="&lt;b&gt;&lt;font style=&quot;font-size: 16px;&quot;&gt;3&lt;/font&gt;&lt;/b&gt;" style="whiteSpace=wrap;html=1;aspect=fixed;" vertex="1" parent="1">
          <mxGeometry x="-360" y="240" width="30" height="30" as="geometry" />
        </mxCell>
        <mxCell id="QbH99j2JAD5R1Iz9AGVL-88" value="&lt;font size=&quot;1&quot;&gt;&lt;b style=&quot;font-size: 16px;&quot;&gt;5&lt;/b&gt;&lt;/font&gt;" style="whiteSpace=wrap;html=1;aspect=fixed;" vertex="1" parent="1">
          <mxGeometry x="-290" y="240" width="30" height="30" as="geometry" />
        </mxCell>
        <mxCell id="QbH99j2JAD5R1Iz9AGVL-89" value="&lt;font size=&quot;1&quot;&gt;&lt;b style=&quot;font-size: 16px;&quot;&gt;2&lt;/b&gt;&lt;/font&gt;" style="whiteSpace=wrap;html=1;aspect=fixed;fillColor=#99FFCC;" vertex="1" parent="1">
          <mxGeometry x="-325" y="240" width="30" height="30" as="geometry" />
        </mxCell>
        <mxCell id="QbH99j2JAD5R1Iz9AGVL-90" value="&lt;b&gt;&lt;font style=&quot;font-size: 16px;&quot;&gt;9&lt;/font&gt;&lt;/b&gt;" style="whiteSpace=wrap;html=1;aspect=fixed;" vertex="1" parent="1">
          <mxGeometry x="-360" y="290" width="30" height="30" as="geometry" />
        </mxCell>
        <mxCell id="QbH99j2JAD5R1Iz9AGVL-91" value="&lt;font size=&quot;1&quot;&gt;&lt;b style=&quot;font-size: 16px;&quot;&gt;11&lt;/b&gt;&lt;/font&gt;" style="whiteSpace=wrap;html=1;aspect=fixed;" vertex="1" parent="1">
          <mxGeometry x="-290" y="290" width="30" height="30" as="geometry" />
        </mxCell>
        <mxCell id="QbH99j2JAD5R1Iz9AGVL-92" value="&lt;font size=&quot;1&quot;&gt;&lt;b style=&quot;font-size: 16px;&quot;&gt;6&lt;/b&gt;&lt;/font&gt;" style="whiteSpace=wrap;html=1;aspect=fixed;fillColor=#99FF99;" vertex="1" parent="1">
          <mxGeometry x="-325" y="290" width="30" height="30" as="geometry" />
        </mxCell>
        <mxCell id="QbH99j2JAD5R1Iz9AGVL-93" value="" style="endArrow=classic;html=1;rounded=0;strokeWidth=2;exitX=1;exitY=0.5;exitDx=0;exitDy=0;entryX=0;entryY=0.5;entryDx=0;entryDy=0;" edge="1" parent="1" source="QbH99j2JAD5R1Iz9AGVL-42" target="QbH99j2JAD5R1Iz9AGVL-84">
          <mxGeometry width="50" height="50" relative="1" as="geometry">
            <mxPoint x="-350" y="594" as="sourcePoint" />
            <mxPoint x="-260" y="594" as="targetPoint" />
          </mxGeometry>
        </mxCell>
        <mxCell id="QbH99j2JAD5R1Iz9AGVL-94" value="&lt;b&gt;&lt;font color=&quot;#ffffff&quot; style=&quot;font-size: 16px;&quot;&gt;E&lt;/font&gt;&lt;/b&gt;" style="rounded=0;whiteSpace=wrap;html=1;fillColor=#B266FF;" vertex="1" parent="1">
          <mxGeometry x="-210" y="200" width="100" height="20" as="geometry" />
        </mxCell>
        <mxCell id="QbH99j2JAD5R1Iz9AGVL-95" value="" style="rounded=0;whiteSpace=wrap;html=1;" vertex="1" parent="1">
          <mxGeometry x="-210" y="170" width="100" height="30" as="geometry" />
        </mxCell>
        <mxCell id="QbH99j2JAD5R1Iz9AGVL-96" value="" style="rounded=0;whiteSpace=wrap;html=1;" vertex="1" parent="1">
          <mxGeometry x="-210" y="220" width="100" height="30" as="geometry" />
        </mxCell>
        <mxCell id="QbH99j2JAD5R1Iz9AGVL-97" value="&lt;b&gt;&lt;font style=&quot;font-size: 16px;&quot;&gt;5&lt;/font&gt;&lt;/b&gt;" style="whiteSpace=wrap;html=1;aspect=fixed;" vertex="1" parent="1">
          <mxGeometry x="-210" y="170" width="30" height="30" as="geometry" />
        </mxCell>
        <mxCell id="QbH99j2JAD5R1Iz9AGVL-98" value="&lt;font size=&quot;1&quot;&gt;&lt;b style=&quot;font-size: 16px;&quot;&gt;6&lt;/b&gt;&lt;/font&gt;" style="whiteSpace=wrap;html=1;aspect=fixed;" vertex="1" parent="1">
          <mxGeometry x="-140" y="170" width="30" height="30" as="geometry" />
        </mxCell>
        <mxCell id="QbH99j2JAD5R1Iz9AGVL-99" value="&lt;font size=&quot;1&quot;&gt;&lt;b style=&quot;font-size: 16px;&quot;&gt;1&lt;/b&gt;&lt;/font&gt;" style="whiteSpace=wrap;html=1;aspect=fixed;fillColor=#99FFCC;" vertex="1" parent="1">
          <mxGeometry x="-175" y="170" width="30" height="30" as="geometry" />
        </mxCell>
        <mxCell id="QbH99j2JAD5R1Iz9AGVL-100" value="&lt;b&gt;&lt;font style=&quot;font-size: 16px;&quot;&gt;11&lt;/font&gt;&lt;/b&gt;" style="whiteSpace=wrap;html=1;aspect=fixed;" vertex="1" parent="1">
          <mxGeometry x="-210" y="220" width="30" height="30" as="geometry" />
        </mxCell>
        <mxCell id="QbH99j2JAD5R1Iz9AGVL-101" value="&lt;font size=&quot;1&quot;&gt;&lt;b style=&quot;font-size: 16px;&quot;&gt;12&lt;/b&gt;&lt;/font&gt;" style="whiteSpace=wrap;html=1;aspect=fixed;" vertex="1" parent="1">
          <mxGeometry x="-140" y="220" width="30" height="30" as="geometry" />
        </mxCell>
        <mxCell id="QbH99j2JAD5R1Iz9AGVL-102" value="&lt;font size=&quot;1&quot;&gt;&lt;b style=&quot;font-size: 16px;&quot;&gt;6&lt;/b&gt;&lt;/font&gt;" style="whiteSpace=wrap;html=1;aspect=fixed;fillColor=#99FF99;" vertex="1" parent="1">
          <mxGeometry x="-175" y="220" width="30" height="30" as="geometry" />
        </mxCell>
        <mxCell id="QbH99j2JAD5R1Iz9AGVL-104" value="&lt;b&gt;&lt;font style=&quot;font-size: 16px;&quot;&gt;F&lt;/font&gt;&lt;/b&gt;" style="rounded=0;whiteSpace=wrap;html=1;fillColor=#FFCCFF;" vertex="1" parent="1">
          <mxGeometry x="-180" y="350" width="100" height="20" as="geometry" />
        </mxCell>
        <mxCell id="QbH99j2JAD5R1Iz9AGVL-105" value="" style="rounded=0;whiteSpace=wrap;html=1;" vertex="1" parent="1">
          <mxGeometry x="-180" y="320" width="100" height="30" as="geometry" />
        </mxCell>
        <mxCell id="QbH99j2JAD5R1Iz9AGVL-106" value="" style="rounded=0;whiteSpace=wrap;html=1;" vertex="1" parent="1">
          <mxGeometry x="-180" y="370" width="100" height="30" as="geometry" />
        </mxCell>
        <mxCell id="QbH99j2JAD5R1Iz9AGVL-107" value="&lt;b&gt;&lt;font style=&quot;font-size: 16px;&quot;&gt;5&lt;/font&gt;&lt;/b&gt;" style="whiteSpace=wrap;html=1;aspect=fixed;" vertex="1" parent="1">
          <mxGeometry x="-180" y="320" width="30" height="30" as="geometry" />
        </mxCell>
        <mxCell id="QbH99j2JAD5R1Iz9AGVL-108" value="&lt;font size=&quot;1&quot;&gt;&lt;b style=&quot;font-size: 16px;&quot;&gt;7&lt;/b&gt;&lt;/font&gt;" style="whiteSpace=wrap;html=1;aspect=fixed;" vertex="1" parent="1">
          <mxGeometry x="-110" y="320" width="30" height="30" as="geometry" />
        </mxCell>
        <mxCell id="QbH99j2JAD5R1Iz9AGVL-109" value="&lt;font size=&quot;1&quot;&gt;&lt;b style=&quot;font-size: 16px;&quot;&gt;2&lt;/b&gt;&lt;/font&gt;" style="whiteSpace=wrap;html=1;aspect=fixed;fillColor=#99FFCC;" vertex="1" parent="1">
          <mxGeometry x="-145" y="320" width="30" height="30" as="geometry" />
        </mxCell>
        <mxCell id="QbH99j2JAD5R1Iz9AGVL-110" value="&lt;b&gt;&lt;font style=&quot;font-size: 16px;&quot;&gt;14&lt;/font&gt;&lt;/b&gt;" style="whiteSpace=wrap;html=1;aspect=fixed;" vertex="1" parent="1">
          <mxGeometry x="-180" y="370" width="30" height="30" as="geometry" />
        </mxCell>
        <mxCell id="QbH99j2JAD5R1Iz9AGVL-111" value="&lt;font size=&quot;1&quot;&gt;&lt;b style=&quot;font-size: 16px;&quot;&gt;16&lt;/b&gt;&lt;/font&gt;" style="whiteSpace=wrap;html=1;aspect=fixed;" vertex="1" parent="1">
          <mxGeometry x="-110" y="370" width="30" height="30" as="geometry" />
        </mxCell>
        <mxCell id="QbH99j2JAD5R1Iz9AGVL-112" value="&lt;font size=&quot;1&quot;&gt;&lt;b style=&quot;font-size: 16px;&quot;&gt;9&lt;/b&gt;&lt;/font&gt;" style="whiteSpace=wrap;html=1;aspect=fixed;fillColor=#99FF99;" vertex="1" parent="1">
          <mxGeometry x="-145" y="370" width="30" height="30" as="geometry" />
        </mxCell>
        <mxCell id="QbH99j2JAD5R1Iz9AGVL-113" value="" style="endArrow=classic;html=1;rounded=0;strokeWidth=2;exitX=1;exitY=0.5;exitDx=0;exitDy=0;entryX=0;entryY=0.5;entryDx=0;entryDy=0;" edge="1" parent="1" source="QbH99j2JAD5R1Iz9AGVL-94" target="QbH99j2JAD5R1Iz9AGVL-115">
          <mxGeometry width="50" height="50" relative="1" as="geometry">
            <mxPoint x="-350" y="594" as="sourcePoint" />
            <mxPoint x="-260" y="594" as="targetPoint" />
          </mxGeometry>
        </mxCell>
        <mxCell id="QbH99j2JAD5R1Iz9AGVL-114" value="" style="endArrow=classic;html=1;rounded=0;strokeWidth=2;exitX=1;exitY=0;exitDx=0;exitDy=0;entryX=0;entryY=0.5;entryDx=0;entryDy=0;" edge="1" parent="1" source="QbH99j2JAD5R1Iz9AGVL-91" target="QbH99j2JAD5R1Iz9AGVL-104">
          <mxGeometry width="50" height="50" relative="1" as="geometry">
            <mxPoint x="-340" y="604" as="sourcePoint" />
            <mxPoint x="-250" y="604" as="targetPoint" />
          </mxGeometry>
        </mxCell>
        <mxCell id="QbH99j2JAD5R1Iz9AGVL-115" value="&lt;b&gt;&lt;font style=&quot;font-size: 16px;&quot;&gt;G&lt;/font&gt;&lt;/b&gt;" style="rounded=0;whiteSpace=wrap;html=1;fillColor=#FFD966;" vertex="1" parent="1">
          <mxGeometry x="-40" y="130" width="100" height="20" as="geometry" />
        </mxCell>
        <mxCell id="QbH99j2JAD5R1Iz9AGVL-116" value="" style="rounded=0;whiteSpace=wrap;html=1;" vertex="1" parent="1">
          <mxGeometry x="-40" y="100" width="100" height="30" as="geometry" />
        </mxCell>
        <mxCell id="QbH99j2JAD5R1Iz9AGVL-117" value="" style="rounded=0;whiteSpace=wrap;html=1;" vertex="1" parent="1">
          <mxGeometry x="-40" y="150" width="100" height="30" as="geometry" />
        </mxCell>
        <mxCell id="QbH99j2JAD5R1Iz9AGVL-118" value="&lt;b&gt;&lt;font style=&quot;font-size: 16px;&quot;&gt;12&lt;/font&gt;&lt;/b&gt;" style="whiteSpace=wrap;html=1;aspect=fixed;" vertex="1" parent="1">
          <mxGeometry x="-40" y="100" width="30" height="30" as="geometry" />
        </mxCell>
        <mxCell id="QbH99j2JAD5R1Iz9AGVL-119" value="&lt;font size=&quot;1&quot;&gt;&lt;b style=&quot;font-size: 16px;&quot;&gt;16&lt;/b&gt;&lt;/font&gt;" style="whiteSpace=wrap;html=1;aspect=fixed;" vertex="1" parent="1">
          <mxGeometry x="30" y="100" width="30" height="30" as="geometry" />
        </mxCell>
        <mxCell id="QbH99j2JAD5R1Iz9AGVL-120" value="&lt;font size=&quot;1&quot;&gt;&lt;b style=&quot;font-size: 16px;&quot;&gt;4&lt;/b&gt;&lt;/font&gt;" style="whiteSpace=wrap;html=1;aspect=fixed;fillColor=#99FFCC;" vertex="1" parent="1">
          <mxGeometry x="-5" y="100" width="30" height="30" as="geometry" />
        </mxCell>
        <mxCell id="QbH99j2JAD5R1Iz9AGVL-121" value="&lt;b&gt;&lt;font style=&quot;font-size: 16px;&quot;&gt;12&lt;/font&gt;&lt;/b&gt;" style="whiteSpace=wrap;html=1;aspect=fixed;" vertex="1" parent="1">
          <mxGeometry x="-40" y="150" width="30" height="30" as="geometry" />
        </mxCell>
        <mxCell id="QbH99j2JAD5R1Iz9AGVL-122" value="&lt;font size=&quot;1&quot;&gt;&lt;b style=&quot;font-size: 16px;&quot;&gt;16&lt;/b&gt;&lt;/font&gt;" style="whiteSpace=wrap;html=1;aspect=fixed;" vertex="1" parent="1">
          <mxGeometry x="30" y="150" width="30" height="30" as="geometry" />
        </mxCell>
        <mxCell id="QbH99j2JAD5R1Iz9AGVL-123" value="&lt;font size=&quot;1&quot;&gt;&lt;b style=&quot;font-size: 16px;&quot;&gt;0&lt;/b&gt;&lt;/font&gt;" style="whiteSpace=wrap;html=1;aspect=fixed;fillColor=#99FF99;" vertex="1" parent="1">
          <mxGeometry x="-5" y="150" width="30" height="30" as="geometry" />
        </mxCell>
        <mxCell id="QbH99j2JAD5R1Iz9AGVL-124" value="" style="endArrow=classic;html=1;rounded=0;strokeWidth=2;exitX=1;exitY=1;exitDx=0;exitDy=0;entryX=0;entryY=0;entryDx=0;entryDy=0;" edge="1" parent="1" source="QbH99j2JAD5R1Iz9AGVL-122" target="QbH99j2JAD5R1Iz9AGVL-60">
          <mxGeometry width="50" height="50" relative="1" as="geometry">
            <mxPoint x="-340" y="604" as="sourcePoint" />
            <mxPoint x="-250" y="604" as="targetPoint" />
          </mxGeometry>
        </mxCell>
        <mxCell id="QbH99j2JAD5R1Iz9AGVL-125" value="" style="endArrow=classic;html=1;rounded=0;strokeWidth=2;exitX=1;exitY=0.25;exitDx=0;exitDy=0;entryX=0;entryY=0.75;entryDx=0;entryDy=0;" edge="1" parent="1" source="QbH99j2JAD5R1Iz9AGVL-104" target="QbH99j2JAD5R1Iz9AGVL-55">
          <mxGeometry width="50" height="50" relative="1" as="geometry">
            <mxPoint x="-330" y="614" as="sourcePoint" />
            <mxPoint x="-240" y="614" as="targetPoint" />
          </mxGeometry>
        </mxCell>
        <mxCell id="QbH99j2JAD5R1Iz9AGVL-126" value="" style="endArrow=classic;html=1;rounded=0;strokeWidth=2;exitX=1;exitY=0.25;exitDx=0;exitDy=0;entryX=0;entryY=1;entryDx=0;entryDy=0;" edge="1" parent="1" source="QbH99j2JAD5R1Iz9AGVL-74" target="QbH99j2JAD5R1Iz9AGVL-118">
          <mxGeometry width="50" height="50" relative="1" as="geometry">
            <mxPoint x="-280" y="380" as="sourcePoint" />
            <mxPoint x="-200" y="450" as="targetPoint" />
          </mxGeometry>
        </mxCell>
      </root>
    </mxGraphModel>
  </diagram>
</mxfile>
